<svg id="&#x421;&#x43B;&#x43E;&#x439;_1" enable-background="new 0 0 512 512" viewBox="0 0 512 512" xmlns="http://www.w3.org/2000/svg"><path d="m193.8 435.3c-29.1 0-56.3-13-74.7-35.5-.6-.7-1.5-1.1-2.4-.9-6.7 1.5-13.7 2.2-20.5 2.2-52.6-.2-95.7-42.9-96.2-95.4-.3-25.9 9.6-50.3 27.9-68.7 18.2-18.4 42.5-28.5 68.4-28.5 1.3 0 2.3-.8 2.5-2 3.6-22.4 15-42.9 32.3-57.7 17.4-15 39.7-23.3 62.8-23.3 14 0 27.4 2.9 40.1 8.7.7.3 1.4.2 1.7 0 .3-.1 1-.5 1.3-1.2 9.3-20.3 25.4-36.8 45.4-46.6 21.3-10.4 45-12.5 68.7-6.2 31.2 8.4 56.3 32.9 65.5 64 3.7 12.4 5 25 3.8 37.5-.1.9.4 1.5.6 1.8.3.3.9.8 1.8.7.9 0 1.5-.1 1.6-.1 50.8 0 87.7 40.6 87.7 96.6 0 49.2-36.8 90.3-85.6 95.7-.7.1-1.3.5-1.7 1.1-17.7 28.3-48.2 45.2-81.6 45.2-25.5 0-49.6-9.9-67.7-27.8-.7-.7-1.5-.7-1.8-.7-.4 0-1.2.2-1.7 1-18.2 25.1-47.4 40.1-78.2 40.1zm-76.6-46.5c3.7 0 7.2 1.6 9.6 4.6 16.5 20.3 40.9 31.9 67 31.9 27.6 0 53.8-13.4 70-35.8 2.1-2.9 5.4-4.8 9-5.1s7.1 1 9.7 3.5c16.3 16.1 37.8 24.9 60.7 24.9 29.9 0 57.2-15.1 73.2-40.5 2-3.2 5.3-5.3 9-5.7 43.7-4.8 76.7-41.7 76.7-85.8 0-50.2-32.7-86.6-77.7-86.7-.2 0-.6 0-1.3 0-3.5.1-7-1.3-9.4-3.8-2.4-2.6-3.6-6-3.3-9.5 1-11.2-.1-22.6-3.5-33.8-8.2-27.8-30.6-49.7-58.5-57.2-41.7-11.2-84.8 8.7-102.5 47.2-1.4 3-3.8 5.2-6.9 6.4s-6.4 1.1-9.4-.3c-11.3-5.2-23.4-7.8-35.9-7.8-42.7 0-78.5 30.5-85.2 72.6-1 6-6.1 10.4-12.2 10.4-23.3 0-45 9.1-61.4 25.6-16.3 16.5-25.2 38.4-25 61.6.5 47 39.1 85.4 86.1 85.4h.2c6.1 0 12.3-.7 18.3-1.9.9-.1 1.8-.2 2.7-.2z"/></svg>