<svg id="outline" height="512" viewBox="0 0 512 512" width="512" xmlns="http://www.w3.org/2000/svg"><path d="m418.651 414.346h-309.225a109.426 109.426 0 1 1 19.856-217.046 85.888 85.888 0 0 1 112.666-46.9 108.992 108.992 0 0 1 199.678 80.127 93.346 93.346 0 0 1 -22.975 183.822zm-309.225-198.846a89.426 89.426 0 1 0 0 178.851h309.225a73.339 73.339 0 0 0 9.182-146.1 10 10 0 0 1 -8.235-13.124 88.984 88.984 0 0 0 -164.427-67.197 10 10 0 0 1 -13.927 4.349 65.886 65.886 0 0 0 -95.811 39.472 10 10 0 0 1 -12.273 6.93 89.678 89.678 0 0 0 -23.734-3.181z"/></svg>